# xmcd
#
# Track frame offsets: 
#        150
#        13168
#        30339
#        53649
#        71691
#        85529
#        106545
#        126230
#        150319
#        161812
#        174685
#        195645
#        210280
#        232983
#
# Disc length: 3285 seconds
#
# Revision: 3
# Processed by: cddbd v1.5.2PL0 Copyright (c) Steve Scherf et al.
# Submitted via: ExactAudioCopy v0.99pb4
#
DISCID=a20cd30e
DTITLE=Hot Toddy - Hot Toddy
DYEAR=2003
DGENRE=Blues
TTITLE0=Big Wind 
TTITLE1=Morning
TTITLE2=Long Distance 
TTITLE3=Climb This Hill
TTITLE4=Any Day
TTITLE5=Be With Me
TTITLE6=Pay Day 
TTITLE7=Can't Be Satisfied 
TTITLE8=I'm A Stranger
TTITLE9=Carry On
TTITLE10=Wheels 
TTITLE11=St. John River
TTITLE12=Let the Mermaids Flirt With Me 
TTITLE13=One More Night
EXTD=
EXTT0=
EXTT1=
EXTT2=
EXTT3=
EXTT4=
EXTT5=
EXTT6=
EXTT7=
EXTT8=
EXTT9=
EXTT10=
EXTT11=
EXTT12=
EXTT13=
PLAYORDER=
